:SAMPLES-PER-SECOND 30
:FULLY-SPECIFIED
:DEGREES
297
root  -1.82837 40.9448 -1.03094 3.33345 -77.3719 0.336029
RightUpLeg  0.563885 -1.67854 -0.0314759
RightLeg  -4.6264 -31.3908 4.25573
RightFoot  0.308241 -0.0925339 0.929536
RightToes  -3.11842e-008 1.75238e-005 3.56266e-009
Spine  -2.15015 3.37139 1.82879
Spine1  17.4939 5.81318 -6.38014
HEad  -17.3712 0.00311996 -2.68263
LeftShoulder1  3.47808 -7.19822 -26.3833
LeftArm  -23.6824 0.235938 -43.8309
LeftForeArm  141.153 -50.1218 -165.925
LeftHand  0.158448 -6.55053 -1.19613
RightShoulder  4.14809 9.07763 26.9545
RightArm  -12.3947 19.5626 36.7351
RightForeArm  122.431 54.7223 162.351
RightHand  0.63287 8.19502 5.00447
LeftUpLeg  -4.27405 0.383455 3.75145
LeftLeg  -3.65304 3.32101 -0.201715
LeftFoot  5.06006 0.445927 -3.30572
LeftToes  4.7713e-008 1.46693e-008 1.32589e-009
298
root  -1.78259 40.9559 -0.926894 3.8522 -78.8889 -0.211716
RightUpLeg  0.623572 -1.55856 -0.0912859
RightLeg  -5.06399 -30.0204 4.31135
RightFoot  0.695997 -0.0952181 0.947049
RightToes  -3.11842e-008 1.75238e-005 3.56266e-009
Spine  -1.78191 2.873 1.2463
Spine1  16.3039 5.02039 -5.79282
HEad  -16.5144 -0.0476183 -2.16465
LeftShoulder1  3.24744 -6.86876 -25.1557
LeftArm  -25.5193 -4.58134 -42.601
LeftForeArm  139.593 -51.7779 -165.04
LeftHand  0.0763071 -6.39673 -0.400437
RightShoulder  3.95697 8.83523 26.0119
RightArm  -14.3206 22.0661 36.6862
RightForeArm  121.246 55.3862 161.875
RightHand  0.61647 8.10309 4.90429
LeftUpLeg  -4.09642 0.454933 3.7681
LeftLeg  -3.53553 4.69689 -0.269193
LeftFoot  4.87638 0.428821 -3.21742
LeftToes  4.7713e-008 1.46693e-008 1.32589e-009
299
root  -1.80922 40.9689 -0.776952 3.58675 -80.8032 -0.134171
RightUpLeg  0.811118 -1.39329 -0.256123
RightLeg  -5.15251 -28.3208 3.92481
RightFoot  0.988173 -0.122769 1.19839
RightToes  -3.11842e-008 1.75238e-005 3.56266e-009
Spine  -2.34424 2.74888 0.500245
Spine1  15.9544 4.51728 -4.65549
HEad  -16.3882 -0.660272 -1.76565
LeftShoulder1  3.09836 -6.64708 -24.3119
LeftArm  -27.8453 -10.8559 -41.2838
LeftForeArm  138.012 -53.9724 -163.808
LeftHand  -0.0275994 -5.44248 0.566508
RightShoulder  3.66349 8.49087 24.4255
RightArm  -17.7772 25.1613 36.6527
RightForeArm  119.81 56.6027 161.006
RightHand  0.534559 8.00657 4.25263
LeftUpLeg  -3.43899 0.529037 3.62282
LeftLeg  -3.62215 6.48509 -0.459937
LeftFoot  4.64188 0.369764 -2.83576
LeftToes  4.7713e-008 1.46693e-008 1.32589e-009
300
root  -1.88985 40.9816 -0.600293 3.43692 -82.6798 -0.365128
RightUpLeg  1.27184 -1.33802 -0.446934
RightLeg  -5.21241 -26.5328 3.60619
RightFoot  1.17376 -0.144082 1.38683
RightToes  -3.11842e-008 1.75238e-005 3.56266e-009
Spine  -2.60297 2.39975 0.32158
Spine1  14.8151 4.01407 -4.44788
HEad  -15.9668 -1.73184 -0.243264
LeftShoulder1  2.83905 -6.27982 -22.7503
LeftArm  -30.4371 -17.1226 -40.5898
LeftForeArm  136.942 -56.1683 -162.469
LeftHand  0.0909999 -4.05117 -0.830503
RightShoulder  3.46744 8.10653 23.6994
RightArm  -21.9331 28.34 35.8131
RightForeArm  118.346 58.0955 159.879
RightHand  0.312737 8.10564 2.29739
LeftUpLeg  -2.54836 0.706449 3.50771
LeftLeg  -3.61014 8.12565 -0.673954
LeftFoot  4.14827 0.350857 -2.7644
LeftToes  4.7713e-008 1.46693e-008 1.32589e-009
301
root  -2.00382 40.9875 -0.407777 3.24637 -84.1971 -0.301682
RightUpLeg  1.3652 -1.29381 -0.666205
RightLeg  -4.93085 -25.1263 3.14384
RightFoot  1.20918 -0.156807 1.50023
RightToes  -3.11842e-008 1.75238e-005 3.56266e-009
Spine  -3.07468 2.06883 -0.474738
Spine1  13.3614 3.19327 -3.05162
HEad  -15.9634 -2.63657 0.319928
LeftShoulder1  2.86329 -6.56073 -22.1319
LeftArm  -33.1799 -22.9968 -38.6428
LeftForeArm  136.819 -58.6552 -160.833
LeftHand  0.0388122 -4.44582 -0.179735
RightShoulder  3.21121 7.82912 22.0941
RightArm  -27.2118 30.9936 35.1929
RightForeArm  116.503 59.4854 158.709
RightHand  0.271182 7.96444 1.97578
LeftUpLeg  -1.88022 0.775094 3.2935
LeftLeg  -3.7423 9.52569 -0.895031
LeftFoot  3.80771 0.292717 -2.37571
LeftToes  4.7713e-008 1.46693e-008 1.32589e-009
302
root  -2.13265 40.9961 -0.21692 2.99423 -85.4585 -0.119873
RightUpLeg  1.49863 -1.20628 -0.880293
RightLeg  -4.78838 -23.9816 2.70946
RightFoot  1.28366 -0.20486 1.93015
RightToes  -3.11842e-008 1.75238e-005 3.56266e-009
Spine  -2.6022 1.52767 -0.510044
Spine1  10.4376 2.48911 -2.96519
HEad  -15.1329 -3.7697 1.98281
LeftShoulder1  2.65323 -6.29484 -20.6755
LeftArm  -35.0647 -28.9176 -38.1424
LeftForeArm  137.58 -61.2722 -158.938
LeftHand  -0.0612097 -4.66676 1.00261
RightShoulder  3.14247 7.77939 21.5576
RightArm  -33.0258 33.1093 33.4151
RightForeArm  114.517 60.5194 157.723
RightHand  0.234922 7.84977 1.67471
LeftUpLeg  -1.29872 0.855808 3.09209
LeftLeg  -3.87392 10.6351 -1.15378
LeftFoot  3.42096 0.26184 -2.18166
LeftToes  4.7713e-008 1.46693e-008 1.32589e-009
303
root  -2.27324 41.0016 -0.0280303 3.58539 -86.283 -0.692429
RightUpLeg  1.79094 -1.29238 -1.13475
RightLeg  -5.10871 -23.0501 2.71297
RightFoot  1.42298 -0.229029 2.13367
RightToes  -3.11842e-008 1.75238e-005 3.56266e-009
Spine  -2.49637 0.798405 -1.47132
Spine1  8.19424 1.28683 -1.36858
HEad  -14.9989 -4.57436 3.82093
LeftShoulder1  2.50436 -6.10094 -19.6029
LeftArm  -37.2696 -34.6416 -37.7913
LeftForeArm  136.778 -63.3163 -157.072
LeftHand  -0.130582 -4.45506 1.8272
RightShoulder  2.82098 7.20724 19.9577
RightArm  -38.6404 35.7208 32.393
RightForeArm  111.58 61.6929 156.479
RightHand  0.0877152 7.56563 0.419291
LeftUpLeg  -0.862154 0.972286 2.95177
LeftLeg  -4.02472 11.315 -1.41517
LeftFoot  3.08557 0.228972 -1.95733
LeftToes  4.7713e-008 1.46693e-008 1.32589e-009
304
root  -2.40641 41.0062 0.14302 4.23369 -87.036 -1.15538
RightUpLeg  1.81733 -1.37687 -1.39879
RightLeg  -5.27853 -22.2025 2.67159
RightFoot  1.56773 -0.249756 2.30095
RightToes  -3.11842e-008 1.75238e-005 3.56266e-009
Spine  -2.17695 0.0643247 -2.57127
Spine1  5.70881 0.150362 0.306957
HEad  -15.27 -5.65061 5.32099
LeftShoulder1  2.39657 -6.03897 -18.5647
LeftArm  -38.8003 -39.5389 -37.6297
LeftForeArm  135.634 -65.306 -154.959
LeftHand  -0.12935 -3.87046 1.88583
RightShoulder  2.63115 6.85113 18.9443
RightArm  -44.558 38.0095 30.5476
RightForeArm  109.922 63.1664 154.909
RightHand  0.0312224 8.17686 -0.112612
LeftUpLeg  -0.641815 0.85289 2.70471
LeftLeg  -4.18974 12.1166 -1.48729
LeftFoot  2.82381 0.205096 -1.78896
LeftToes  4.7713e-008 1.46693e-008 1.32589e-009
305
root  -2.53284 41.013 0.303423 6.43097 -87.7987 -3.14894
RightUpLeg  1.85889 -1.38261 -1.58118
RightLeg  -5.57706 -21.4814 2.67094
RightFoot  1.76571 -0.285348 2.58772
RightToes  -3.11842e-008 1.75238e-005 3.56266e-009
Spine  -2.00799 -0.669227 -3.82694
Spine1  3.69696 -0.987513 2.38117
HEad  -15.5312 -6.79041 7.19221
LeftShoulder1  2.27556 -5.81044 -17.8276
LeftArm  -40.293 -43.4875 -37.3549
LeftForeArm  133.935 -66.94 -152.867
LeftHand  -0.114159 -3.35751 1.7596
RightShoulder  2.35793 6.28037 17.5374
RightArm  -49.6042 39.9809 29.3737
RightForeArm  107.964 64.9061 152.836
RightHand  -0.071278 8.45016 -0.978736
LeftUpLeg  -0.472457 0.737151 2.51004
LeftLeg  -4.31957 12.9088 -1.5246
LeftFoot  2.60869 0.186473 -1.65361
LeftToes  4.7713e-008 1.46693e-008 1.32589e-009
306
root  -2.65466 41.018 0.433644 10.7487 -88.5314 -7.18315
RightUpLeg  1.84344 -1.25962 -1.6541
RightLeg  -5.98332 -20.9272 2.62415
RightFoot  2.00456 -0.310064 2.76613
RightToes  -3.11842e-008 1.75238e-005 3.56266e-009
Spine  -2.05709 -1.2165 -5.07428
Spine1  2.20989 -1.82654 4.30171
HEad  -15.7268 -8.12219 9.66566
LeftShoulder1  2.21761 -5.88884 -16.9381
LeftArm  -40.6084 -46.25 -38.1518
LeftForeArm  133.563 -68.3399 -150.98
LeftHand  -0.145428 -4.09519 2.0637
RightShoulder  2.16748 5.68647 16.9742
RightArm  -53.9666 41.0837 27.9756
RightForeArm  104.778 66.3969 150.679
RightHand  -0.129728 8.67512 -1.45702
LeftUpLeg  -0.445049 0.73762 2.40567
LeftLeg  -4.38681 13.6069 -1.64794
LeftFoot  2.37274 0.162132 -1.46815
LeftToes  4.7713e-008 1.46693e-008 1.32589e-009
307
root  -2.75975 41.0187 0.569348 32.3293 -89.307 -28.754
RightUpLeg  1.93349 -1.29437 -1.7995
RightLeg  -6.03773 -20.0803 2.53486
RightFoot  2.11841 -0.352205 3.1055
RightToes  -3.11842e-008 1.75238e-005 3.56266e-009
Spine  -1.54702 -1.66427 -6.40877
Spine1  0.458771 -2.58459 6.55672
HEad  -15.4906 -9.60578 11.3552
LeftShoulder1  2.30597 -6.2455 -16.9827
LeftArm  -39.7845 -46.9983 -38.4618
LeftForeArm  132.976 -68.8759 -150.131
LeftHand  -0.179552 -3.27184 2.64267
RightShoulder  2.00715 5.17364 16.4841
RightArm  -57.0015 41.5398 27.1864
RightForeArm  101.747 67.6418 148.626
RightHand  -0.129711 8.24579 -1.48032
LeftUpLeg  -0.0520758 0.658549 2.23903
LeftLeg  -4.64818 14.5224 -1.70024
LeftFoot  2.20946 0.136562 -1.26255
LeftToes  4.7713e-008 1.46693e-008 1.32589e-009
308
root  -2.85735 41.0204 0.677121 101.519 -89.4828 -98.3722
RightUpLeg  2.5718 -1.26459 -1.80483
RightLeg  -6.27151 -19.3695 2.46595
RightFoot  2.27656 -0.376632 3.28277
RightToes  -3.11842e-008 1.75238e-005 3.56266e-009
Spine  -1.55583 -2.10124 -7.83984
Spine1  0.513547 -3.42093 8.96966
HEad  -16.0699 -9.78678 12.9546
LeftShoulder1  2.39876 -6.40285 -17.5942
LeftArm  -38.2515 -46.8809 -38.5656
LeftForeArm  132.792 -68.7051 -150.359
LeftHand  -0.218039 -3.27136 3.16831
RightShoulder  1.92242 4.8641 16.3115
RightArm  -58.6741 41.3889 26.6897
RightForeArm  100.944 68.2331 147.62
RightHand  -0.179859 8.56006 -1.87767
LeftUpLeg  0.624268 0.820151 2.24892
LeftLeg  -4.51741 15.067 -1.7216
LeftFoot  1.88173 0.12541 -1.18001
LeftToes  4.7713e-008 1.46693e-008 1.32589e-009
